<svg xmlns="http://www.w3.org/2000/svg" width="24" height="24" viewBox="0 0 24 24" fill="currentColor">
  <path d="M22.23 0H1.77C0.79 0 0 0.79 0 1.77v20.45C0 23.21 0.79 24 1.77 24h20.45c0.98 0 1.77-0.79 1.77-1.77V1.77C24 0.79 23.21 0 22.23 0zM7.12 20.45H3.56V9h3.56v11.45zM5.34 7.44c-1.14 0-2.06-0.92-2.06-2.06s0.92-2.06 2.06-2.06 2.06 0.92 2.06 2.06-0.92 2.06-2.06 2.06zM20.45 20.45h-3.56v-5.63c0-1.34-0.03-3.07-1.87-3.07s-2.16 1.46-2.16 2.96v5.74h-3.56V9h3.42v1.56h0.05c0.48-0.91 1.66-1.87 3.42-1.87 3.66 0 4.34 2.41 4.34 5.55v6.21z"/>
</svg>
